# xmcd
#
# Track frame offsets:
# 150
# 22189
# 39359
# 59990
# 82428
# 105278
# 130718
# 150078
# 168174
# 184566
# 204619
# 226446
# 245524
# 269562
# 288084
#
# Disc length: 4079 seconds
#
#
# Revision: 0
# Processed by: cddbd v1.5.2PL0 Copyright (c) Steve Scherf et al.
# Submitted via: FreeRIP 2.945 
#
DISCID=cc0fed0f
DTITLE=Monty - Party Punjab ( Desi Party )
DYEAR=2006
DGENRE=Blues
TTITLE0=Dil Le Gayee
TTITLE1=Time Das Ja
TTITLE2=Dhol Wajda
TTITLE3=Bhangra Fever
TTITLE4=Jugni
TTITLE5=PunjabanSoni Lagdi ( extended mix )
TTITLE6=Ne Baliyeh
TTITLE7=Humen To Loot Liya
TTITLE8=Na Na Na Re
TTITLE9=Rang De (remix)
TTITLE10=Kudi Kudi
TTITLE11=Dhol Dhamaka
TTITLE12=Sharrata
TTITLE13=Whiskey Di Bottle
TTITLE14=Mundiah Toh Bachke
EXTD=
EXTT0=
EXTT1=
EXTT2=
EXTT3=
EXTT4=
EXTT5=
EXTT6=
EXTT7=
EXTT8=
EXTT9=
EXTT10=
EXTT11=
EXTT12=
EXTT13=
EXTT14=
PLAYORDER=
